<?xml version="1.0"?>
<svg xmlns="http://www.w3.org/2000/svg" version="1" viewBox="0 0 24 24" enable-background="new 0 0 24 24">
    <path d="M 6 2 C 4.9 2 4 2.9 4 4 L 4 20 C 4 21.1 4.9 22 6 22 L 18 22 C 19.1 22 20 21.1 20 20 L 20 4 C 20 2.9 19.1 2 18 2 L 6 2 z M 12 5 C 14.8 5 17 7.2 17 10 C 17 12.8 14.8 15 12 15 C 11.025943 15 10.136475 14.715123 9.375 14.25 L 10.59375 11.8125 C 10.69375 11.5125 10.4875 11.30625 10.1875 11.40625 L 7.75 12.625 C 7.2848774 11.863525 7 10.974057 7 10 C 7 7.2 9.2 5 12 5 z M 12 9 C 11.4 9 11 9.4 11 10 C 11 10.6 11.4 11 12 11 C 12.6 11 13 10.6 13 10 C 13 9.4 12.6 9 12 9 z"/>
</svg>
