<?xml version="1.0" encoding="UTF-8" standalone="no"?>
<!-- Generator: Adobe Illustrator 18.1.1, SVG Export Plug-In . SVG Version: 6.00 Build 0)  -->

<svg
   xmlns:dc="http://purl.org/dc/elements/1.1/"
   xmlns:cc="http://creativecommons.org/ns#"
   xmlns:rdf="http://www.w3.org/1999/02/22-rdf-syntax-ns#"
   xmlns:svg="http://www.w3.org/2000/svg"
   xmlns="http://www.w3.org/2000/svg"
   xmlns:sodipodi="http://sodipodi.sourceforge.net/DTD/sodipodi-0.dtd"
   xmlns:inkscape="http://www.inkscape.org/namespaces/inkscape"
   version="1.1"
   id="Capa_1"
   x="0px"
   y="0px"
   viewBox="0 0 612 612"
   style="enable-background:new 0 0 612 612;"
   xml:space="preserve"
   sodipodi:docname="drive_hdd.svg"
   inkscape:version="0.92.2 2405546, 2018-03-11"><metadata
   id="metadata54"><rdf:RDF><cc:Work
       rdf:about=""><dc:format>image/svg+xml</dc:format><dc:type
         rdf:resource="http://purl.org/dc/dcmitype/StillImage" /></cc:Work></rdf:RDF></metadata><defs
   id="defs52" /><sodipodi:namedview
   pagecolor="#ffffff"
   bordercolor="#666666"
   borderopacity="1"
   objecttolerance="10"
   gridtolerance="10"
   guidetolerance="10"
   inkscape:pageopacity="0"
   inkscape:pageshadow="2"
   inkscape:window-width="713"
   inkscape:window-height="480"
   id="namedview50"
   showgrid="false"
   inkscape:zoom="0.38562092"
   inkscape:cx="215.23729"
   inkscape:cy="306"
   inkscape:window-x="0"
   inkscape:window-y="0"
   inkscape:window-maximized="0"
   inkscape:current-layer="Capa_1" />
<g
   id="g17"
   style="fill:#aaacad;fill-opacity:1">
	<g
   id="Hard_Drive"
   style="fill:#aaacad;fill-opacity:1">
		<path
   d="M469.201,0c-108.8,0-217.6,0-326.4,0c-28.167,0-51.001,22.834-51.001,51c0,170,0,340,0,510    c0,28.167,22.834,51.001,51,51.001c108.8,0,217.6,0,326.4,0c28.167,0,51-22.834,51-51c0-170,0-340,0-510    C520.201,22.834,497.367,0,469.201,0z M495.221,561c0,14.371-11.649,26.02-26.02,26.02c-108.8,0-217.6,0-326.4,0    c-14.371,0-26.02-11.649-26.02-26.02c0-170,0-340,0-510C116.78,36.629,128.429,24.98,142.8,24.98c108.8,0,217.6,0,326.4,0    c14.371,0,26.02,11.649,26.02,26.02C495.221,220.999,495.221,391.001,495.221,561z"
   id="path2"
   style="fill:#aaacad;fill-opacity:1" />
		<circle
   cx="469.201"
   cy="51"
   r="11.241"
   id="circle4"
   style="fill:#aaacad;fill-opacity:1" />
		<circle
   cx="142.8"
   cy="51"
   r="11.241"
   id="circle6"
   style="fill:#aaacad;fill-opacity:1" />
		<circle
   cx="469.201"
   cy="561"
   r="11.241"
   id="circle8"
   style="fill:#aaacad;fill-opacity:1" />
		<path
   d="M374.05,316.636c-4.41-4.41-11.397-4.891-16.369-1.127c-51.578,39.039-103.156,78.077-154.734,117.117    c-19.034,14.407-20.955,42.309-4.075,59.19c16.88,16.88,44.782,14.959,59.19-4.075c39.039-51.578,78.077-103.156,117.117-154.734    C378.941,328.033,378.46,321.046,374.05,316.636z M226.69,483.355c-10.693,0-19.359-8.668-19.359-19.359    s8.667-19.359,19.359-19.359s19.359,8.668,19.359,19.359S237.383,483.355,226.69,483.355z"
   id="path10"
   style="fill:#aaacad;fill-opacity:1" />
		<path
   d="M459.949,177.858c-18.657-75.161-88.86-125.862-166.076-119.941c-77.216,5.92-138.868,66.733-145.847,143.859    c-6.981,77.126,42.753,148.019,117.65,167.707c28.156-21.31,56.311-42.621,84.467-63.932c9.946-7.528,23.919-6.565,32.738,2.254    c8.82,8.819,9.782,22.794,2.254,32.738c-5.298,6.999-10.595,13.999-15.893,20.998C440.263,330.665,478.606,253.02,459.949,177.858    z M306.001,269.78c-29.661,0-53.706-24.045-53.706-53.706s24.045-53.706,53.706-53.706c29.661,0,53.706,24.045,53.706,53.706    S335.661,269.78,306.001,269.78z"
   id="path12"
   style="fill:#aaacad;fill-opacity:1" />
		<circle
   cx="142.8"
   cy="561"
   r="11.241"
   id="circle14"
   style="fill:#aaacad;fill-opacity:1" />
	</g>
</g>
<g
   id="g19">
</g>
<g
   id="g21">
</g>
<g
   id="g23">
</g>
<g
   id="g25">
</g>
<g
   id="g27">
</g>
<g
   id="g29">
</g>
<g
   id="g31">
</g>
<g
   id="g33">
</g>
<g
   id="g35">
</g>
<g
   id="g37">
</g>
<g
   id="g39">
</g>
<g
   id="g41">
</g>
<g
   id="g43">
</g>
<g
   id="g45">
</g>
<g
   id="g47">
</g>
</svg>