<?xml version="1.0" encoding="iso-8859-1"?>
<!-- Generator: Adobe Illustrator 18.1.1, SVG Export Plug-In . SVG Version: 6.00 Build 0)  -->
<svg version="1.1" id="Capa_1" xmlns="http://www.w3.org/2000/svg" xmlns:xlink="http://www.w3.org/1999/xlink" x="0px" y="0px"
	 viewBox="0 0 612 612" style="enable-background:new 0 0 612 612;" xml:space="preserve">
<g>
	<g>
		<path d="M457.357,205.046H154.643c-5.543,0-10.039,4.493-10.039,10.039v235.516c0,88.997,72.402,161.399,161.395,161.399
			c88.995,0,161.397-72.402,161.397-161.399V215.085C467.396,209.539,462.905,205.046,457.357,205.046z"/>
		<path d="M418.978,18.99C418.978,8.502,410.479,0,399.99,0H212.01c-10.486,0-18.988,8.502-18.988,18.99v152.17h225.953V18.99
			H418.978z M288.91,103.957c0,1.106-0.898,2.01-2.01,2.01h-52.94c-1.112,0-2.01-0.904-2.01-2.01V51.011
			c0-1.108,0.898-2.008,2.01-2.008h52.94c1.114,0,2.01,0.9,2.01,2.008V103.957z M380.052,103.957c0,1.106-0.898,2.01-2.012,2.01
			H325.1c-1.114,0-2.012-0.904-2.012-2.01V51.011c0-1.108,0.898-2.008,2.012-2.008h52.94c1.114,0,2.012,0.9,2.012,2.008V103.957z"/>
	</g>
</g>
<g>
</g>
<g>
</g>
<g>
</g>
<g>
</g>
<g>
</g>
<g>
</g>
<g>
</g>
<g>
</g>
<g>
</g>
<g>
</g>
<g>
</g>
<g>
</g>
<g>
</g>
<g>
</g>
<g>
</g>
</svg>
