<?xml version="1.0" encoding="UTF-8" standalone="no"?>
<!-- Generator: Adobe Illustrator 18.1.1, SVG Export Plug-In . SVG Version: 6.00 Build 0)  -->

<svg
   xmlns:dc="http://purl.org/dc/elements/1.1/"
   xmlns:cc="http://creativecommons.org/ns#"
   xmlns:rdf="http://www.w3.org/1999/02/22-rdf-syntax-ns#"
   xmlns:svg="http://www.w3.org/2000/svg"
   xmlns="http://www.w3.org/2000/svg"
   xmlns:xlink="http://www.w3.org/1999/xlink"
   xmlns:sodipodi="http://sodipodi.sourceforge.net/DTD/sodipodi-0.dtd"
   xmlns:inkscape="http://www.inkscape.org/namespaces/inkscape"
   version="1.1"
   id="Capa_1"
   x="0px"
   y="0px"
   viewBox="0 0 612 612"
   style="enable-background:new 0 0 612 612;"
   xml:space="preserve"
   sodipodi:docname="drive_usb.svg"
   inkscape:version="0.92.2 2405546, 2018-03-11"><metadata
   id="metadata45"><rdf:RDF><cc:Work
       rdf:about=""><dc:format>image/svg+xml</dc:format><dc:type
         rdf:resource="http://purl.org/dc/dcmitype/StillImage" /></cc:Work></rdf:RDF></metadata><defs
   id="defs43"><linearGradient
     inkscape:collect="always"
     id="linearGradient856"><stop
       style="stop-color:#000000;stop-opacity:1;"
       offset="0"
       id="stop852" /><stop
       style="stop-color:#000000;stop-opacity:0;"
       offset="1"
       id="stop854" /></linearGradient><linearGradient
     inkscape:collect="always"
     xlink:href="#linearGradient856"
     id="linearGradient858"
     x1="144.604"
     y1="306"
     x2="467.396"
     y2="306"
     gradientUnits="userSpaceOnUse" /></defs><sodipodi:namedview
   pagecolor="#ffffff"
   bordercolor="#666666"
   borderopacity="1"
   objecttolerance="10"
   gridtolerance="10"
   guidetolerance="10"
   inkscape:pageopacity="0"
   inkscape:pageshadow="2"
   inkscape:window-width="713"
   inkscape:window-height="480"
   id="namedview41"
   showgrid="false"
   inkscape:zoom="0.38562092"
   inkscape:cx="215.23729"
   inkscape:cy="306"
   inkscape:window-x="0"
   inkscape:window-y="0"
   inkscape:window-maximized="0"
   inkscape:current-layer="Capa_1" />
<g
   id="g8"
   style="fill-opacity:1;fill:#aaacad">
	<g
   id="g6"
   style="fill-opacity:1;fill:#aaacad">
		<path
   d="M457.357,205.046H154.643c-5.543,0-10.039,4.493-10.039,10.039v235.516c0,88.997,72.402,161.399,161.395,161.399    c88.995,0,161.397-72.402,161.397-161.399V215.085C467.396,209.539,462.905,205.046,457.357,205.046z"
   id="path2"
   style="fill-opacity:1;fill:#aaacad" />
		<path
   d="M418.978,18.99C418.978,8.502,410.479,0,399.99,0H212.01c-10.486,0-18.988,8.502-18.988,18.99v152.17h225.953V18.99    H418.978z M288.91,103.957c0,1.106-0.898,2.01-2.01,2.01h-52.94c-1.112,0-2.01-0.904-2.01-2.01V51.011    c0-1.108,0.898-2.008,2.01-2.008h52.94c1.114,0,2.01,0.9,2.01,2.008V103.957z M380.052,103.957c0,1.106-0.898,2.01-2.012,2.01    H325.1c-1.114,0-2.012-0.904-2.012-2.01V51.011c0-1.108,0.898-2.008,2.012-2.008h52.94c1.114,0,2.012,0.9,2.012,2.008V103.957z"
   id="path4"
   style="fill-opacity:1;fill:#aaacad" />
	</g>
</g>
<g
   id="g10">
</g>
<g
   id="g12">
</g>
<g
   id="g14">
</g>
<g
   id="g16">
</g>
<g
   id="g18">
</g>
<g
   id="g20">
</g>
<g
   id="g22">
</g>
<g
   id="g24">
</g>
<g
   id="g26">
</g>
<g
   id="g28">
</g>
<g
   id="g30">
</g>
<g
   id="g32">
</g>
<g
   id="g34">
</g>
<g
   id="g36">
</g>
<g
   id="g38">
</g>
</svg>