<?xml version="1.0" encoding="UTF-8" standalone="no"?>
<!-- Generator: flash2svg, http://dissentgraphics.com/tools/flash2svg -->

<svg
   xmlns:dc="http://purl.org/dc/elements/1.1/"
   xmlns:cc="http://creativecommons.org/ns#"
   xmlns:rdf="http://www.w3.org/1999/02/22-rdf-syntax-ns#"
   xmlns:svg="http://www.w3.org/2000/svg"
   xmlns="http://www.w3.org/2000/svg"
   xmlns:sodipodi="http://sodipodi.sourceforge.net/DTD/sodipodi-0.dtd"
   xmlns:inkscape="http://www.inkscape.org/namespaces/inkscape"
   id="Netbeans"
   image-rendering="optimizeSpeed"
   version="1.1"
   style="background-color:#ffffff"
   x="0px"
   y="0px"
   width="1024px"
   height="1024px"
   viewBox="0 0 1024 1024"
   enable-background="new 0 0 1024 1024"
   inkscape:version="0.92.2 2405546, 2018-03-11"
   sodipodi:docname="netbeans-ide (copy 1).svg">
  <metadata
     id="metadata27">
    <rdf:RDF>
      <cc:Work
         rdf:about="">
        <dc:format>image/svg+xml</dc:format>
        <dc:type
           rdf:resource="http://purl.org/dc/dcmitype/StillImage" />
      </cc:Work>
    </rdf:RDF>
  </metadata>
  <sodipodi:namedview
     pagecolor="#ffffff"
     bordercolor="#666666"
     borderopacity="1"
     objecttolerance="10"
     gridtolerance="10"
     guidetolerance="10"
     inkscape:pageopacity="0"
     inkscape:pageshadow="2"
     inkscape:window-width="1366"
     inkscape:window-height="714"
     id="namedview25"
     showgrid="false"
     inkscape:zoom="0.32593203"
     inkscape:cx="465.936"
     inkscape:cy="670.52362"
     inkscape:window-x="0"
     inkscape:window-y="0"
     inkscape:window-maximized="1"
     inkscape:current-layer="Netbeans" />
  <defs
     transform="matrix(1 0 0 1 0 0) "
     id="defs3" />
  <g
     id="ico-shadow"
     style="fill:#afdde9"
     transform="translate(-6.1362487,-12.272497)">
    <g
       id="shape2"
       style="fill:#afdde9">
      <path
         id="path1"
         d="M 727.2,91.75 C 718.5,87.4 709.35,83.1 699.95,79.05 691.35,75.3 682.8,71.85 674.05,68.65 631.95,52.9 589.8,43.3 547.6,40 478.2,34.4 408.65,45.4 338.7,73 c -23.45,9.3 -45.65,19.9 -66.6,31.9 -41.3,23.7 -77.6,52.65 -108.5,86.7 Q 112,248.2 79.05,324.15 C 58.8,370.8 46.2,417.6 41.2,463.8 c -0.45,4.45 -0.85,8.6 -1.2,12.75 -3.7,45.6 -0.2,90.75 10.25,136 5.7,24.55 13.25,48.75 22.75,72.85 27.7,69.95 67.25,128.4 118.55,175.1 31.45,28.65 67.2,52.85 107.3,72.8 0.15,0.05 0.25,0.1 0.35,0.15 3.1,1.55 6.1,3 8.65,4.15 4.9,2.35 9.25,4.35 13.6,6.25 1.1,0.45 1.9,0.85 2.75,1.2 9.45,4.1 18.9,7.85 27.9,11.2 2.35,0.85 4.5,1.65 6.6,2.4 19.05,6.7 38.2,12.15 56.9,16.3 7.9,1.7 15.8,3.25 23.5,4.55 0.95,0.2 1.95,0.3 2.7,0.45 11.65,1.85 23.2,3.25 34.75,4.2 69.8,5.45 139.2,-5.55 208.85,-33.05 24.35,-9.6 47.3,-20.65 68.8,-33.15 35.1,-20.35 66.45,-44.5 94.1,-72.5 4.15,-4.2 8.2,-8.5 12.25,-12.9 8.4,-9.25 16.5,-18.95 24.25,-29.1 20.05,-26.15 37.55,-55.1 52.6,-86.7 2.6,-5.5 5.15,-11.1 7.65,-16.85 0.25,-0.6 0.55,-1.25 0.8,-1.85 0.15,-0.3 0.25,-0.6 0.4,-0.9 2.8,-6.6 5.45,-13.25 8.1,-20 C 966,646.5 974.5,615.5 979.7,584.1 c 0.7,-4.4 1.4,-9.15 2.1,-13.9 0.9,-7.35 1.75,-14.85 2.35,-22.6 0.1,-1.45 0.25,-3.15 0.4,-4.95 1.3,-19.3 1.3,-38.7 0.1,-58.4 -0.45,-6.4 -1,-12.9 -1.7,-19.6 -0.2,-1.85 -0.45,-3.85 -0.7,-5.85 -2,-16.4 -4.95,-32.85 -8.95,-49.7 -5.45,-23.15 -12.85,-46.75 -22.2,-70.4 -27.55,-69.75 -67,-128.05 -118.6,-175.1 -18.75,-17.1 -39.35,-32.8 -61.55,-46.95 -13.85,-8.9 -28.3,-17.1 -43.75,-24.9 z"
         style="fill:#afdde9;fill-opacity:1"
         inkscape:connector-curvature="0" />
    </g>
  </g>
  <g
     id="ico-shadow2">
    <g
       id="shape6" />
  </g>
  <g
     transform="translate(-8.877607,-9.6505843)"
     id="ico-shadow2-3"
     style="fill:#808080;fill-opacity:0.50196078;stroke:#ffffff;stroke-width:0.69999993;stroke-miterlimit:4;stroke-dasharray:none;stroke-opacity:1">
    <g
       id="shape6-6"
       style="fill:#808080;fill-opacity:0.50196078;stroke:#ffffff;stroke-width:0.69999993;stroke-miterlimit:4;stroke-dasharray:none;stroke-opacity:1">
      <path
         inkscape:connector-curvature="0"
         id="path3"
         d="m 883.35,315.8 c -5.6,-7 -12.75,-11.7 -21.4,-14.15 -0.3,-0.1 -0.55,-0.15 -0.8,-0.2 -1.1,-0.3 -2.2,-0.55 -3.25,-0.75 v -0.025 L 525.575,185.95 h -0.025 c -9.25,-3.15 -18.55,-3.15 -27.8,0 -0.3,0.05 -0.6,0.15 -0.85,0.3 L 162.2,301.625 v 0.025 c -4.75,1.3 -9.1,3.4 -13.1,6.25 h -0.025 l 0.225,-0.175 v 0.025 c -0.2,0.15 -0.4,0.25 -0.6,0.4 -0.35,0.25 -0.65,0.5 -1,0.8 l -0.025,-0.025 -0.175,0.175 c -0.05,0 -0.05,0 -0.1,0.05 -0.05,0.05 -0.15,0.1 -0.2,0.15 -0.65,0.55 -1.3,1.05 -1.9,1.6 -0.35,0.3 -0.7,0.65 -1.05,1 -0.45,0.35 -0.85,0.75 -1.2,1.2 -0.05,0.05 -0.05,0.05 -0.1,0.1 -1.15,1.15 -2.2,2.4 -3.15,3.7 -0.45,0.45 -0.8,0.95 -1.1,1.5 -3.3,4.65 -5.55,9.8 -6.7,15.45 -0.05,0.05 -0.05,0.15 -0.05,0.25 -0.05,0.15 -0.05,0.3 -0.1,0.45 -0.05,0.1 -0.05,0.2 -0.05,0.3 h -0.025 l -0.2,1.2 h 0.025 c -0.05,0.1 -0.05,0.2 -0.05,0.25 0,0.05 0,0.05 0,0.1 -0.1,0.45 -0.15,0.9 -0.2,1.35 -0.05,0.65 -0.1,1.35 -0.15,2 -0.05,0.15 -0.05,0.35 -0.05,0.55 -0.05,0.7 -0.1,1.3 -0.1,1.85 V 343 c 0,0.6 0,1.2 0.05,1.8 v 336.25 c 0,8.95 2.6,17.15 7.75,24.55 0.05,0.05 0.15,0.15 0.2,0.25 5.1,7.05 11.7,12.1 19.75,15.1 0.45,0.2 0.85,0.35 1.3,0.5 l 336.775,116.3 h 0.025 c 2.25,0.85 4.65,1.55 7.2,2.05 0.35,0.1 0.7,0.15 1.05,0.2 0.05,0 0.1,0 0.15,0.05 0.15,0 0.3,0 0.45,0.05 2.15,0.3 4.25,0.45 6.3,0.45 0.05,0 0.15,0 0.2,0 0.15,0 0.3,0 0.45,0 0.05,0 0.15,0 0.2,0 0.1,0 0.25,0 0.4,0 2.05,-0.05 4.1,-0.3 6.15,-0.65 0.15,-0.05 0.35,-0.05 0.55,-0.1 l -0.025,-0.025 -0.625,0.05 v 0.025 c 0.25,-0.05 0.55,-0.1 0.85,-0.15 0.4,-0.05 0.8,-0.15 1.2,-0.25 2.05,-0.45 4.1,-1.05 6.05,-1.8 h -0.025 l 336.85,-116.3 h 0.025 c 0.2,-0.05 0.4,-0.15 0.65,-0.25 l -0.15,0.025 v 0.025 c 0.1,-0.05 0.2,-0.1 0.35,-0.1 8.2,-3.05 14.85,-8.15 19.9,-15.25 0.05,-0.05 0.1,-0.15 0.15,-0.2 0.05,-0.05 0.05,-0.15 0.1,-0.2 5.1,-7.25 7.7,-15.3 7.75,-24.1 V 342.45 c -0.05,-9.35 -2.9,-17.75 -8.5,-25.25 -0.35,-0.5 -0.75,-0.95 -1.2,-1.4 z m -653.6,35.65 -12.1,-8.6 12.1,4.15 z M 770.1,337.7 c -0.5,0.7 -0.9,1.5 -1.15,2.3 -0.4,1 -0.6,1.95 -0.55,3 -0.05,1.05 0.15,2.1 0.55,3.05 0.2,0.8 0.6,1.55 1.15,2.3 1.1,1.5 2.5,2.6 4.3,3.3 l 0.45,0.15 c 1.85,0.6 3.7,0.6 5.5,0 l -2.75,0.95 22.15,7.65 c 1.9,0.7 3.85,0.7 5.75,0.1 1.9,-0.6 3.45,-1.7 4.7,-3.3 1.2,-1.7 1.8,-3.45 1.8,-5.45 v -14.325 0.025 c 0.2,0.25 0.4,0.5 0.6,0.75 v -0.025 l 0.025,0.05 0.025,0.025 c 1,1.4 1.5,3 1.5,4.75 v 0.05 c 0,0.75 -0.1,1.5 -0.25,2.25 -0.6,2.4 -0.35,4.7 0.8,6.95 1.15,2.15 2.85,3.7 5.15,4.65 -0.6,0.7 -1.1,1.45 -1.45,2.25 -0.5,1.15 -0.7,2.35 -0.7,3.65 v 6.35 l 18.4,-6.35 -14.55,7.5 12.25,8.7 2.3,-16.05 v 19.3 l 6,-2.1 c 0.9,-0.3 1.7,-0.7 2.4,-1.2 V 670.8 c 0,1.8 -0.55,3.45 -1.6,4.9 -0.95,1.35 -2.2,2.35 -3.75,2.95 -0.1,0.05 -0.2,0.05 -0.3,0.1 h -0.025 l -294.45,101.675 0.025,0.025 c 0.25,-0.85 0.35,-1.75 0.35,-2.7 v -6.35 l -17.95,6.2 -0.1,0.05 -0.35,0.1 14.55,-7.5 -12.2,-8.7 -2.35,16.05 v -19.3 l -6,2.05 c -1.2,0.45 -2.35,1.1 -3.2,1.9 -0.3,0.35 -0.65,0.65 -0.95,1.05 -0.35,0.45 -0.6,0.85 -0.9,1.3 -1.15,2.05 -1.4,4.25 -0.9,6.5 0.3,1.4 0.9,2.7 1.8,3.75 0.3,0.4 0.65,0.7 0.95,1 0.25,0.25 0.55,0.5 0.85,0.7 l 12.2,8.7 c 0.05,0 0.05,0 0.05,0.05 l -1.175,0.4 h 0.025 c -1.8,0.55 -3.6,0.6 -5.35,0.1 -1.55,-0.55 -2.85,-1.45 -3.85,-2.7 -1.3,-1.55 -2.9,-2.65 -4.85,-3.25 -1.95,-0.6 -3.9,-0.6 -5.8,0 -1.95,0.55 -3.55,1.65 -4.85,3.2 -1.1,1.35 -2.5,2.25 -4.15,2.8 l -0.025,-0.025 0.125,-0.05 v 0.025 c -1.75,0.55 -3.55,0.5 -5.3,-0.1 h -0.025 l -1.175,-0.4 c 0,-0.05 0,-0.05 0.05,-0.05 l 12.25,-8.7 c 0.3,-0.2 0.55,-0.45 0.85,-0.7 0.3,-0.3 0.65,-0.6 0.95,-1 0.85,-1.05 1.5,-2.35 1.85,-3.75 0.5,-2.25 0.15,-4.45 -1,-6.5 -0.25,-0.45 -0.55,-0.85 -0.85,-1.3 -0.3,-0.4 -0.65,-0.7 -0.95,-1.05 -0.9,-0.8 -1.95,-1.45 -3.2,-1.9 l -6,-2.05 v 19.3 l -2.3,-16.05 -12.25,8.7 14.55,7.5 -18.4,-6.35 v 6.35 c 0,0.95 0.15,1.85 0.4,2.7 l -0.025,-0.025 -294.45,-101.675 h 0.025 c -0.15,-0.05 -0.3,-0.05 -0.45,-0.1 -1.55,-0.65 -2.75,-1.6 -3.7,-2.95 l -0.025,-0.025 0.075,0.075 c -1.05,-1.5 -1.6,-3.15 -1.6,-4.95 V 378.95 c 0.7,0.5 1.5,0.9 2.4,1.2 l 6,2.1 V 376 c 0.05,1.8 0.65,3.5 1.7,5 1.15,1.6 2.6,2.7 4.5,3.4 l 0.4,0.1 c 0.85,0.25 1.75,0.4 2.6,0.4 0.9,0 1.85,-0.15 2.75,-0.4 1.9,-0.6 3.45,-1.75 4.65,-3.35 0.6,-0.8 1,-1.55 1.3,-2.45 0.3,-0.85 0.45,-1.85 0.5,-2.8 v -0.35 c -0.05,-1.9 -0.6,-3.6 -1.7,-5.15 -1.05,-1.55 -2.5,-2.65 -4.2,-3.3 l 5.9,2.05 v -6.35 c 0,-1.3 -0.25,-2.5 -0.75,-3.65 -0.35,-0.85 -0.9,-1.7 -1.6,-2.5 -0.05,-0.05 -0.1,-0.1 -0.15,-0.15 2.15,-0.95 3.75,-2.5 4.8,-4.65 1.15,-2.25 1.35,-4.6 0.7,-7 -0.15,-0.7 -0.25,-1.4 -0.25,-2.1 0,-1.75 0.5,-3.35 1.55,-4.75 v -0.025 l 0.05,-0.1 v 0.025 c 0.15,-0.25 0.35,-0.5 0.55,-0.7 v -0.025 14.275 c 0,2 0.6,3.85 1.8,5.5 1.2,1.6 2.75,2.7 4.7,3.3 1.9,0.6 3.8,0.6 5.7,-0.1 l 22.25,-7.6 -16.05,-5.55 v -8.4 L 245.8,333.05 232.925,328.625 508.9,233.45 c 0.1,-0.05 0.2,-0.05 0.25,-0.1 1.75,-0.55 3.45,-0.5 5.2,0.1 h 0.025 l 276.125,95.375 -12.9,4.475 2.575,0.875 0.025,0.025 c -1.85,-0.6 -3.7,-0.55 -5.55,0.1 l -0.4,0.15 c -1.7,0.65 -3.05,1.75 -4.15,3.25 z m 70.35,318.9 c -1.15,-1.5 -2.6,-2.5 -4.35,-3.1 v 17.3 l -0.05,0.05 -16.4,5.65 c 1.15,1.5 2.65,2.5 4.4,3.1 1.9,0.6 3.85,0.6 5.75,-0.05 1.85,-0.65 3.45,-1.8 4.6,-3.4 l 6.2,-8.7 c 1.15,-1.6 1.7,-3.45 1.7,-5.4 -0.05,-2.05 -0.65,-3.85 -1.85,-5.45 z m -14.85,0.2 -6.2,8.7 16.7,5.3 z m -6.2,2.15 c 1.05,-1.5 2.45,-2.6 4.2,-3.25 l -5.9,2 v 6.3 c 0.05,-1.85 0.65,-3.55 1.7,-5.05 z M 502.7,243.1 c -0.75,0.6 -1.35,1.25 -1.8,2.05 l 7.4,-2.55 c -1.7,0.65 -3.1,1.7 -4.15,3.2 -1.15,1.6 -1.7,3.35 -1.7,5.3 -0.05,1.05 0.1,2.1 0.5,3.05 0.2,0.8 0.65,1.55 1.2,2.3 1.05,1.55 2.45,2.65 4.25,3.3 l 3.2,1.1 3.2,-1.1 c 1.75,-0.65 3.2,-1.75 4.3,-3.25 0.5,-0.8 0.9,-1.55 1.2,-2.35 0.35,-0.95 0.5,-1.95 0.55,-3 0,-1.95 -0.55,-3.7 -1.7,-5.35 -1.15,-1.55 -2.6,-2.65 -4.35,-3.3 l 7.6,2.65 c -0.5,-0.8 -1.1,-1.45 -1.85,-2.05 -1.7,-1.45 -3.7,-2.2 -5.95,-2.2 h -5.95 c -2.25,0 -4.25,0.75 -5.95,2.2 z M 188.05,653.5 c -1.8,0.6 -3.2,1.6 -4.3,3.1 -1.25,1.6 -1.85,3.4 -1.85,5.45 -0.05,1.95 0.55,3.8 1.7,5.4 l 6.15,8.7 c 1.15,1.6 2.7,2.75 4.6,3.4 1.9,0.65 3.8,0.65 5.7,0.05 1.8,-0.6 3.3,-1.6 4.45,-3.1 l -16.4,-5.7 16.65,-5.3 -6.15,-8.7 -10.55,14 z m 16.7,5.45 c 1.05,1.5 1.65,3.2 1.7,5.05 v -6.3 l -5.925,-2.025 0.025,0.025 c 1.75,0.65 3.15,1.7 4.2,3.25 z m 298.1,-224.3 c 0,1.95 0.55,3.7 1.7,5.3 1.1,1.6 2.5,2.7 4.3,3.35 l -7.5,-2.6 c 0.5,0.75 1.1,1.45 1.75,2.05 1.7,1.4 3.7,2.15 5.95,2.15 h 6 c 2.25,0 4.2,-0.75 5.9,-2.15 0.7,-0.6 1.3,-1.3 1.8,-2.05 l -7.5,2.6 c 1.75,-0.65 3.2,-1.75 4.3,-3.35 1.15,-1.6 1.7,-3.35 1.7,-5.3 0,-1.1 -0.2,-2.05 -0.5,-2.95 -0.3,-0.85 -0.7,-1.6 -1.2,-2.35 -1.15,-1.6 -2.7,-2.7 -4.5,-3.35 l -0.3,-0.15 h -0.1 l -2.6,-0.9 -2.65,0.9 h -0.05 l -0.3,0.15 c -1.85,0.65 -3.3,1.75 -4.45,3.35 -0.55,0.75 -0.95,1.5 -1.25,2.3 -0.3,0.95 -0.5,1.9 -0.5,3 z m 9.95,24.4 V 459 c -0.25,-0.3 -0.5,-0.6 -0.7,-0.85 -0.25,0.3 -0.5,0.65 -0.75,0.95 -0.8,1.1 -1.45,2.25 -2,3.5 1.8,0.25 3.65,0.25 5.45,0 -0.5,-1.25 -1.2,-2.4 -2,-3.55 z m -15.05,10.65 h 0.05 l -16.65,5.3 6.2,8.7 10.45,-13.95 v 17.3 c 1.8,-0.6 3.2,-1.65 4.35,-3.15 1.2,-1.6 1.8,-3.45 1.85,-5.45 0.05,-1.95 -0.55,-3.8 -1.7,-5.4 l -6.2,-8.7 c -1.15,-1.6 -2.75,-2.75 -4.6,-3.4 -1.9,-0.65 -3.85,-0.65 -5.7,0 -1.8,0.55 -3.3,1.55 -4.45,3.05 z M 522,483.95 c 1.15,1.5 2.55,2.55 4.35,3.15 v -17.35 l 10.55,14 6.15,-8.7 -16.65,-5.3 16.4,-5.7 c -1.15,-1.5 -2.65,-2.5 -4.45,-3.05 -1.9,-0.65 -3.8,-0.65 -5.7,0 -1.9,0.65 -3.45,1.8 -4.6,3.4 l -6.15,8.7 c -1.15,1.6 -1.75,3.45 -1.7,5.45 0,2 0.6,3.8 1.8,5.4 z m 22.75,-1.1 v -6.25 c -0.05,1.75 -0.65,3.5 -1.7,5 -1.05,1.55 -2.45,2.65 -4.2,3.3 l -0.025,-0.025 z m -59.45,2 c -1.75,-0.7 -3.15,-1.8 -4.2,-3.3 -1.05,-1.5 -1.65,-3.2 -1.7,-5 v 6.25 z m 357.6,-127 c 1.05,1.45 1.6,3.1 1.6,4.95 v 1.225 0.025 C 844.45,364 844.45,364 844.45,364 l -12.25,-8.7 c 0,0 0,0 -0.05,0 v -0.025 l 1.2,-0.425 h -0.05 c 0.05,0 0.05,0 0.1,0 1.75,-0.6 3.45,-0.65 5.2,-0.1 1.75,0.55 3.15,1.6 4.25,3.1 v -0.025 l 0.025,0.025 z m -657.3,-3.1 c 1.55,-0.5 3.15,-0.5 4.8,-0.05 0.1,0.05 0.25,0.1 0.4,0.15 h -0.025 l 1.175,0.4 c 0,0.05 0,0.05 -0.05,0.05 l -12.15,8.7 c -0.05,0.05 -0.05,0.05 -0.1,0.05 v -1.25 c 0,-1.85 0.55,-3.5 1.65,-4.95 h -0.025 l 0.025,-0.025 v 0.025 c 1.1,-1.5 2.55,-2.55 4.3,-3.1 z"
         style="fill:#808080;fill-opacity:0.50196078;stroke:#ffffff;stroke-width:0.69999993;stroke-miterlimit:4;stroke-dasharray:none;stroke-opacity:1" />
    </g>
  </g>
  <g
     transform="translate(-8.877607,-9.6505843)"
     style="stroke:none;stroke-width:0.69999993;stroke-miterlimit:4;stroke-dasharray:none;stroke-opacity:1"
     id="Calque.__202">
    <g
       style="stroke:none;stroke-width:0.69999993;stroke-miterlimit:4;stroke-dasharray:none;stroke-opacity:1"
       id="shape59">
      <path
         style="fill:#ffffff;fill-opacity:1;stroke:none;stroke-width:0.69999993;stroke-miterlimit:4;stroke-dasharray:none;stroke-opacity:1"
         inkscape:connector-curvature="0"
         d="m 854.113,328.893 q -1.472,-0.414 -2.943,-0.506 L 516.232,212.754 c -3.082,-1.058 -6.164,-1.058 -9.291,0 L 170.163,328.847 c -1.702,0.414 -3.22,1.103 -4.646,2.115 l -0.414,0.322 c -0.414,0.276 -0.828,0.644 -1.196,0.966 l -0.322,0.368 c -0.598,0.552 -1.104,1.15 -1.563,1.794 -1.15,1.564 -1.886,3.312 -2.3,5.243 l -0.184,1.058 c -0.046,0.506 -0.092,1.012 -0.138,1.518 v 0.736 c 0,0.23 0,0.46 0.046,0.69 v 337.33 c 0,2.99 0.874,5.749 2.622,8.233 1.747,2.484 4.093,4.232 6.991,5.243 l 337.192,116.461 c 1.103,0.46 2.253,0.828 3.495,1.012 0.782,0.092 1.61,0.184 2.392,0.184 0.828,-0.046 1.656,-0.138 2.484,-0.276 l 0.138,-0.046 c 1.012,-0.184 1.978,-0.46 2.897,-0.874 L 854.941,694.463 c 2.898,-1.011 5.244,-2.759 6.991,-5.243 1.748,-2.484 2.622,-5.243 2.668,-8.233 V 342.691 c -0.046,-3.173 -1.012,-6.071 -2.943,-8.601 -1.932,-2.576 -4.462,-4.324 -7.544,-5.197 z M 512,444.341 217.538,342.737 511.586,241.363 805.726,342.967 Z M 836.037,362.745 V 670.776 L 526.305,777.715 V 469.684 Z M 497.741,469.638 V 777.715 L 188.009,670.776 V 362.745 Z"
         id="path52" />
      <path
         style="fill:#00bbf2;fill-opacity:1;stroke:none;stroke-width:0.69999993;stroke-miterlimit:4;stroke-dasharray:none;stroke-opacity:1"
         inkscape:connector-curvature="0"
         d="M 512,444.341 805.726,342.967 511.586,241.363 217.538,342.737 Z"
         id="path53" />
      <path
         style="fill:#37abc8;fill-opacity:1;stroke:none;stroke-width:0.69999993;stroke-miterlimit:4;stroke-dasharray:none;stroke-opacity:1"
         inkscape:connector-curvature="0"
         d="M 836.037,362.745 526.305,469.684 V 777.715 L 836.037,670.776 Z"
         id="path54" />
      <path
         style="fill:#37abc8;fill-opacity:1;stroke:none;stroke-width:0.69999993;stroke-miterlimit:4;stroke-dasharray:none;stroke-opacity:1"
         inkscape:connector-curvature="0"
         d="M 497.741,469.638 188.009,362.745 v 308.031 l 309.732,106.939 z"
         id="path55" />
    </g>
  </g>
</svg>
