<?xml version="1.0" encoding="UTF-8" standalone="no"?>
<!-- Generator: flash2svg, http://dissentgraphics.com/tools/flash2svg -->

<svg
   xmlns:dc="http://purl.org/dc/elements/1.1/"
   xmlns:cc="http://creativecommons.org/ns#"
   xmlns:rdf="http://www.w3.org/1999/02/22-rdf-syntax-ns#"
   xmlns:svg="http://www.w3.org/2000/svg"
   xmlns="http://www.w3.org/2000/svg"
   xmlns:sodipodi="http://sodipodi.sourceforge.net/DTD/sodipodi-0.dtd"
   xmlns:inkscape="http://www.inkscape.org/namespaces/inkscape"
   id="Netbeans"
   image-rendering="optimizeSpeed"
   version="1.1"
   style="background-color:#ffffff"
   x="0px"
   y="0px"
   width="1024px"
   height="1024px"
   viewBox="0 0 1024 1024"
   enable-background="new 0 0 1024 1024"
   inkscape:version="0.92.2 2405546, 2018-03-11"
   sodipodi:docname="Box.svg">
  <metadata
     id="metadata27">
    <rdf:RDF>
      <cc:Work
         rdf:about="">
        <dc:format>image/svg+xml</dc:format>
        <dc:type
           rdf:resource="http://purl.org/dc/dcmitype/StillImage" />
      </cc:Work>
    </rdf:RDF>
  </metadata>
  <sodipodi:namedview
     pagecolor="#ffffff"
     bordercolor="#666666"
     borderopacity="1"
     objecttolerance="10"
     gridtolerance="10"
     guidetolerance="10"
     inkscape:pageopacity="0"
     inkscape:pageshadow="2"
     inkscape:window-width="1366"
     inkscape:window-height="714"
     id="namedview25"
     showgrid="false"
     inkscape:zoom="0.32593203"
     inkscape:cx="-32.634208"
     inkscape:cy="670.52362"
     inkscape:window-x="0"
     inkscape:window-y="0"
     inkscape:window-maximized="1"
     inkscape:current-layer="Netbeans" />
  <defs
     transform="matrix(1 0 0 1 0 0) "
     id="defs3" />
  <g
     id="ico-shadow"
     style="fill:#c2de8e;fill-opacity:1"
     transform="translate(-6.1362487,-12.272497)">
    <g
       id="shape2"
       style="fill:#c2de8e;fill-opacity:1">
      <path
         id="path1"
         d="M 727.2,91.75 C 718.5,87.4 709.35,83.1 699.95,79.05 691.35,75.3 682.8,71.85 674.05,68.65 631.95,52.9 589.8,43.3 547.6,40 478.2,34.4 408.65,45.4 338.7,73 c -23.45,9.3 -45.65,19.9 -66.6,31.9 -41.3,23.7 -77.6,52.65 -108.5,86.7 Q 112,248.2 79.05,324.15 C 58.8,370.8 46.2,417.6 41.2,463.8 c -0.45,4.45 -0.85,8.6 -1.2,12.75 -3.7,45.6 -0.2,90.75 10.25,136 5.7,24.55 13.25,48.75 22.75,72.85 27.7,69.95 67.25,128.4 118.55,175.1 31.45,28.65 67.2,52.85 107.3,72.8 0.15,0.05 0.25,0.1 0.35,0.15 3.1,1.55 6.1,3 8.65,4.15 4.9,2.35 9.25,4.35 13.6,6.25 1.1,0.45 1.9,0.85 2.75,1.2 9.45,4.1 18.9,7.85 27.9,11.2 2.35,0.85 4.5,1.65 6.6,2.4 19.05,6.7 38.2,12.15 56.9,16.3 7.9,1.7 15.8,3.25 23.5,4.55 0.95,0.2 1.95,0.3 2.7,0.45 11.65,1.85 23.2,3.25 34.75,4.2 69.8,5.45 139.2,-5.55 208.85,-33.05 24.35,-9.6 47.3,-20.65 68.8,-33.15 35.1,-20.35 66.45,-44.5 94.1,-72.5 4.15,-4.2 8.2,-8.5 12.25,-12.9 8.4,-9.25 16.5,-18.95 24.25,-29.1 20.05,-26.15 37.55,-55.1 52.6,-86.7 2.6,-5.5 5.15,-11.1 7.65,-16.85 0.25,-0.6 0.55,-1.25 0.8,-1.85 0.15,-0.3 0.25,-0.6 0.4,-0.9 2.8,-6.6 5.45,-13.25 8.1,-20 C 966,646.5 974.5,615.5 979.7,584.1 c 0.7,-4.4 1.4,-9.15 2.1,-13.9 0.9,-7.35 1.75,-14.85 2.35,-22.6 0.1,-1.45 0.25,-3.15 0.4,-4.95 1.3,-19.3 1.3,-38.7 0.1,-58.4 -0.45,-6.4 -1,-12.9 -1.7,-19.6 -0.2,-1.85 -0.45,-3.85 -0.7,-5.85 -2,-16.4 -4.95,-32.85 -8.95,-49.7 -5.45,-23.15 -12.85,-46.75 -22.2,-70.4 -27.55,-69.75 -67,-128.05 -118.6,-175.1 -18.75,-17.1 -39.35,-32.8 -61.55,-46.95 -13.85,-8.9 -28.3,-17.1 -43.75,-24.9 z"
         style="fill:#c2de8e;fill-opacity:1"
         inkscape:connector-curvature="0" />
    </g>
  </g>
  <g
     id="ico-shadow2">
    <g
       id="shape6" />
  </g>
  <path
     style="fill:#ececec;fill-opacity:1;fill-rule:nonzero;stroke:#ececec;stroke-width:40.3197937;stroke-linecap:round;stroke-linejoin:miter;stroke-miterlimit:4;stroke-dasharray:none;stroke-opacity:1"
     d="m 616.44447,272.88295 c -52.09773,-29.75824 -95.10338,-55.28367 -95.56815,-56.7232 -0.46476,-1.43955 1.87788,-5.99544 5.2058,-10.12422 l 3.24595,-5.62609 17.17486,5.29402 c 20.38135,6.28238 174.31024,98.11716 178.45744,101.84773 2.54573,2.29 2.12754,4.74499 -1.93881,11.38233 -2.85154,4.65445 -6.68525,8.37098 -8.5193,8.25895 -1.83408,-0.1121 -45.96008,-24.55127 -98.05779,-54.30952 z"
     id="path3811"
     inkscape:connector-curvature="0"
     sodipodi:nodetypes="ccscsssccc" />
  <path
     style="fill:#9ec569;stroke-width:1.87533927"
     d="m 469.05151,704.5915 c -20.61211,-12.17497 -53.95775,-31.86384 -74.10141,-43.75308 -20.14368,-11.8892 -41.99082,-24.89409 -48.54921,-28.89976 -6.55841,-4.00565 -22.37125,-13.18691 -35.13965,-20.40281 -12.76842,-7.21589 -28.44705,-9.31175 -30.42561,-10.9694 -3.58926,-3.00715 0.26238,-8.608 109.68036,-199.16502 60.3156,-105.0427 109.33514,-188.18518 110.33367,-188.51998 1.95315,-0.65487 46.75449,26.39853 53.17784,30.28874 2.50768,1.51873 12.08382,6.02521 20.9845,10.66611 8.9007,4.6409 30.3276,14.43585 46.9956,24.26014 16.66799,9.82429 46.94738,27.63552 67.28751,39.58054 20.34012,11.94495 37.22299,22.89634 37.51743,24.33638 0.29446,1.44 -21.63216,41.40014 -48.72579,88.8003 -27.09363,47.40014 -75.24495,131.64602 -107.00294,187.21301 -31.75797,55.567 -59.27492,102.75673 -61.14875,104.86604 l -3.40695,3.83514 z"
     id="path3037"
     inkscape:connector-curvature="0"
     sodipodi:nodetypes="sssssscsssssssscs" />
  <path
     style="fill:#ff6600;stroke-width:1.87533927"
     d="m 710.0941,294.36503 c -18.26984,-10.58718 -67.71337,-39.1515 -109.87453,-63.47628 -42.16116,-24.32477 -77.96595,-45.46557 -79.5662,-46.9795 -2.73257,-2.58519 -2.59261,-3.30309 2.30088,-11.80217 4.84811,-8.42031 6.41257,-9.6311 22.49957,-17.41292 21.2288,-10.26911 34.28341,-13.7157 56.84364,-15.00748 74.7479,-4.27997 140.03499,47.84744 152.90547,122.08483 3.84935,22.20314 3.43428,28.44834 -2.60624,39.21431 -2.85721,5.09235 -6.11511,10.01701 -7.23981,10.94371 -1.43463,1.18209 -11.95836,-4.05984 -35.26278,-17.5645 z"
     id="path2992"
     inkscape:connector-curvature="0" />
  <path
     style="fill:#00bbf2;fill-opacity:1;stroke-width:1.87533927"
     d="m 469.37175,702.42855 c -19.4991,-11.51709 -52.07818,-30.69626 -72.39795,-42.6204 -27.5295,-16.15497 -66.60304,-38.82767 -66.60304,-38.82767 0.13463,-4.68885 220.10201,-381.91243 220.10201,-381.91243 -0.36021,-1.1505 45.81899,25.87701 65.21882,37.18588 19.39983,11.30886 35.7367,20.56381 36.30417,20.56654 3.20078,0.015 74.37142,42.99598 74.81678,45.18256 0.29446,1.44569 -21.85158,41.79602 -49.21341,89.66735 -160.68837,281.13503 -166.39787,290.9435 -169.57634,291.31975 -1.759,0.20821 -19.15197,-9.04449 -38.65104,-20.56158 z"
     id="path3031"
     inkscape:connector-curvature="0"
     sodipodi:nodetypes="sscsscssss" />
  <path
     style="fill:#00bbf2;fill-opacity:1;stroke-width:1.87533927"
     d="m 308.07254,606.92487 c -12.64834,-7.46446 -28.13911,-9.31985 -28.13911,-10.15738 0,-2.92037 220.17547,-385.82662 221.8655,-385.84317 0.93692,-0.009 13.37434,8.07064 26.0227,15.51691 16.86622,9.92942 22.94413,14.37689 22.79871,16.68288 -0.3015,4.78051 -214.53053,376.62876 -217.21208,377.02604 -1.28628,0.19058 -12.68735,-5.76081 -25.33572,-13.22528 z"
     id="path3029"
     inkscape:connector-curvature="0"
     sodipodi:nodetypes="sscsscs" />
  <path
     style="fill:#394050;stroke-width:1.87533927"
     d="m 284.67358,837.23607 c -0.0815,-5.74598 -0.92232,-25.03742 -1.86844,-42.86978 -0.94606,-17.8324 -1.12108,-33.09894 -0.38892,-33.92568 1.49152,-1.68414 78.09333,41.8462 79.12697,44.96527 0.50436,1.52203 -64.99406,37.91986 -74.78227,41.55694 -1.06646,0.39632 -2.00575,-3.98072 -2.08734,-9.72675 z"
     id="path3007"
     inkscape:connector-curvature="0" />
  <path
     style="fill:#ececec;fill-opacity:1;fill-rule:nonzero;stroke:#ececec;stroke-width:40.3197937;stroke-linecap:round;stroke-linejoin:miter;stroke-miterlimit:4;stroke-dasharray:none;stroke-opacity:1"
     d="m 349.15592,778.74104 c -6.75335,-4.12058 -20.13788,-12.48911 -29.74345,-18.59672 l -17.46468,-11.10481 -1.60093,-46.4611 c -0.88051,-25.5536 -2.28921,-57.70828 -3.13045,-71.45482 -1.37291,-22.43435 -1.10475,-24.99371 2.61862,-24.99371 4.3967,0 22.49614,10.06489 113.17053,62.933 64.51697,37.61688 77.9654,46.2826 76.20807,49.10599 -2.00355,3.21889 -123.71885,68.7385 -126.75744,68.2338 -0.56183,-0.0933 -6.54695,-3.54105 -13.30027,-7.66163 z"
     id="path3041"
     inkscape:connector-curvature="0" />
</svg>
