<?xml version="1.0" encoding="UTF-8" standalone="no"?>
<svg
   xmlns:dc="http://purl.org/dc/elements/1.1/"
   xmlns:cc="http://creativecommons.org/ns#"
   xmlns:rdf="http://www.w3.org/1999/02/22-rdf-syntax-ns#"
   xmlns:svg="http://www.w3.org/2000/svg"
   xmlns="http://www.w3.org/2000/svg"
   xmlns:sodipodi="http://sodipodi.sourceforge.net/DTD/sodipodi-0.dtd"
   xmlns:inkscape="http://www.inkscape.org/namespaces/inkscape"
   width="24"
   height="24"
   viewBox="0 0 24 24"
   version="1.1"
   id="svg6"
   sodipodi:docname="eraser_w.svg"
   inkscape:version="0.92.2 2405546, 2018-03-11">
  <metadata
     id="metadata12">
    <rdf:RDF>
      <cc:Work
         rdf:about="">
        <dc:format>image/svg+xml</dc:format>
        <dc:type
           rdf:resource="http://purl.org/dc/dcmitype/StillImage" />
        <dc:title />
      </cc:Work>
    </rdf:RDF>
  </metadata>
  <defs
     id="defs10" />
  <sodipodi:namedview
     pagecolor="#ffffff"
     bordercolor="#666666"
     borderopacity="1"
     objecttolerance="10"
     gridtolerance="10"
     guidetolerance="10"
     inkscape:pageopacity="0"
     inkscape:pageshadow="2"
     inkscape:window-width="1366"
     inkscape:window-height="714"
     id="namedview8"
     showgrid="false"
     inkscape:zoom="9.8333333"
     inkscape:cx="31.187817"
     inkscape:cy="12"
     inkscape:window-x="0"
     inkscape:window-y="0"
     inkscape:window-maximized="1"
     inkscape:current-layer="svg6" />
  <path
     d="M 0,24 H 24 V 0 H 0 Z"
     id="path2"
     inkscape:connector-curvature="0"
     style="fill:none" />
  <g
     id="g826"
     style="fill:#aaacad;fill-opacity:1">
    <path
       inkscape:connector-curvature="0"
       id="path822"
       d="m 21.41,12.21661 -9,9 c -0.36,0.36 -0.86,0.58 -1.41,0.58 H 4 c -1.1,0 -2,-0.9 -2,-2 v -7 c 0,-0.55 0.22,-1.05 0.59,-1.42 l 9,-8.9999998 c 0.36,-0.36 0.86,-0.58 1.41,-0.58 0.55,0 1.05,0.22 1.41,0.59 l 7,7 c 0.37,0.36 0.59,0.8599998 0.59,1.4099998 0,0.55 -0.23,1.06 -0.59,1.42 z"
       style="fill:#aaacad;fill-opacity:1" />
    <path
       inkscape:connector-curvature="0"
       id="path4"
       d="m 5.5,16.79661 c -0.83,0 -1.5,0.67 -1.5,1.5 0,0.83 0.67,1.5 1.5,1.5 0.83,0 1.5,-0.67 1.5,-1.5 0,-0.83 -0.67,-1.5 -1.5,-1.5 z"
       style="fill:#aaacad;fill-opacity:1" />
  </g>
</svg>
