<?xml version="1.0" encoding="UTF-8" standalone="no"?>
<svg
   xmlns:dc="http://purl.org/dc/elements/1.1/"
   xmlns:cc="http://creativecommons.org/ns#"
   xmlns:rdf="http://www.w3.org/1999/02/22-rdf-syntax-ns#"
   xmlns:svg="http://www.w3.org/2000/svg"
   xmlns="http://www.w3.org/2000/svg"
   xmlns:sodipodi="http://sodipodi.sourceforge.net/DTD/sodipodi-0.dtd"
   xmlns:inkscape="http://www.inkscape.org/namespaces/inkscape"
   width="24"
   height="24"
   viewBox="0 0 24 24"
   version="1.1"
   id="svg6"
   sodipodi:docname="select_b.svg"
   inkscape:version="0.92.2 2405546, 2018-03-11">
  <metadata
     id="metadata12">
    <rdf:RDF>
      <cc:Work
         rdf:about="">
        <dc:format>image/svg+xml</dc:format>
        <dc:type
           rdf:resource="http://purl.org/dc/dcmitype/StillImage" />
        <dc:title></dc:title>
      </cc:Work>
    </rdf:RDF>
  </metadata>
  <defs
     id="defs10" />
  <sodipodi:namedview
     pagecolor="#ffffff"
     bordercolor="#666666"
     borderopacity="1"
     objecttolerance="10"
     gridtolerance="10"
     guidetolerance="10"
     inkscape:pageopacity="0"
     inkscape:pageshadow="2"
     inkscape:window-width="1366"
     inkscape:window-height="714"
     id="namedview8"
     showgrid="false"
     inkscape:zoom="9.8333333"
     inkscape:cx="12"
     inkscape:cy="12"
     inkscape:window-x="0"
     inkscape:window-y="0"
     inkscape:window-maximized="1"
     inkscape:current-layer="svg6" />
  <path
     d="M0 0h24v24H0z"
     fill="none"
     id="path2" />
  <path
     d="M 3,13 H 5 V 11 H 3 Z"
     id="path896" />
  <path
     d="M 7,21 H 9 V 19 H 7 Z"
     id="path894" />
  <path
     d="M 3,9 H 5 V 7 H 3 Z"
     id="path892" />
  <path
     d="m 13,3 h -2 v 2 h 2 z"
     id="path890" />
  <path
     d="m 19,3 v 2 h 2 C 21,3.9 20.1,3 19,3 Z"
     id="path888" />
  <path
     d="M 5,21 V 19 H 3 c 0,1.1 0.9,2 2,2 z"
     id="path886" />
  <path
     d="M 3,17 H 5 V 15 H 3 Z"
     id="path884" />
  <path
     d="M 9,3 H 7 v 2 h 2 z"
     id="path882" />
  <path
     d="m 11,21 h 2 v -2 h -2 z"
     id="path880" />
  <path
     d="m 19,13 h 2 v -2 h -2 z"
     id="path878" />
  <path
     d="m 19,21 c 1.1,0 2,-0.9 2,-2 h -2 z"
     id="path876" />
  <path
     d="m 19,9 h 2 V 7 h -2 z"
     id="path874" />
  <path
     d="m 19,17 h 2 v -2 h -2 z"
     id="path872" />
  <path
     d="m 15,21 h 2 v -2 h -2 z"
     id="path870" />
  <path
     d="m 15,5 h 2 V 3 h -2 z"
     id="path868" />
  <path
     inkscape:connector-curvature="0"
     d="m 4.9661017,3.0677969 h -2 v 2 h 2 z"
     id="path882-3" />
  <path
     inkscape:connector-curvature="0"
     d="m 21,3 h -2 v 2 h 2 z"
     id="path882-6" />
  <path
     inkscape:connector-curvature="0"
     d="m 21,19 h -2 v 2 h 2 z"
     id="path882-7" />
  <path
     inkscape:connector-curvature="0"
     d="M 5,19 H 3 v 2 h 2 z"
     id="path882-5" />
</svg>
